<?xml version="1.0" encoding="UTF-8"?>
<svg id="Layer_2" data-name="Layer 2" xmlns="http://www.w3.org/2000/svg" viewBox="0 0 598.12 153.89">
  <g id="Layer_2-2" data-name="Layer 2">
    <g id="Layer_1-2" data-name="Layer 1-2">
      <path d="M12.41,45.57c-.52-8.38-.24-21.97,7.67-24.79,17.7-6.32,41.1-8.57,59.75-10.89,6.76-.84,29.29.83,30.13,7.59l-10.83,38.96-29.09,2.78s-2.97-7.4-5.29-8.06c-4.5-1.29-12.45,5.75-17.04,7.78-.65.29-1.03.98-.94,1.69l1.19,9.29,34.15-7.47,2.05,17.16c.37,3.11-1.5,9.32-4.61,9.76-9.73,1.39-19.28,4.04-28.32,7.88l4.55,45.51c.04.21-.41.03-.23-.09-16.07,2.03-34.28,5.15-50.07,8.75-.72.16-1.64.26-2.05-.36-.13-.2-.18-.44-.22-.68C1.71,142.33.64,134.19,0,126.02c-.06-.82.5-1.56,1.31-1.73l17.57-5.31-6.45-73.42h-.02Z"/>
      <path d="M106.22,118.88c8.15,1.03,12.98-.82,18.58-.3-.75-10.51-2.16-22.56-8.7-28-5.03-4.19-11.41-2.9-17.15-1.24-7.88,2.27-16.2,5.4-21.53,13.75-.99-2.97,1-7.65-1.09-9.17-.63-.45-1.38-.33-2.08-.18l-16.85,6.62c1.76,13.7,3.53,27.4,5.29,41.11,5.7-2.67,11.6-4.52,17.58-5.51-.27-7.27-.41-15.18,2.68-21.05,2.94-5.59,14.12-10.52,18.07-6.3l5.19,10.27h0Z"/>
      <path d="M127.76,134.21c1.36.97,6.75-.53,8.33-.74,5.8-.8,11.57-1.86,17.27-3.18-3.32-13.78-5.81-27.42-10.19-40.9-4.51.49-10.37.99-14.88,1.48l-.53,43.34Z"/>
      <path d="M193.69,61.95c-8.63-8.52-17.71-12.82-30.71-19.01-6.73,9.64-18.3,24.33-18.3,36.99,1.72,13.8,12.41,48.95,12.41,48.95h29.03c7.32-4.27,14.3-16.91,15.78-27.93-.21-7.85-5.89-32.91-8.2-38.99h0ZM175.89,102.99c-1.18-7.57-2.3-20.75-1.62-30.43,5.16,4.82,9.64,6.85,13.05,17.86-4.54,7.02-7.13,12.33-11.43,12.57h0Z"/>
      <path d="M224.94,26.01c-7.68.25-13.9,0-20.86,0-4.15,0-8.31,0-12.43.48-1.02.12-2.05.27-2.96.75-1.08.57-1.89,1.54-2.64,2.5l-8.64,18.55c6.22,3.14,11.66,7.86,17.83,12.94,1.71,2.89,2.53,5.2,3.3,8.47,1.61,6.88,3.08,13.79,4.4,20.74.84,4.39,1.61,8.88,1.06,13.31-.51,4.1-2.14,7.98-3.93,11.7-1.14,2.36-3.22,6.19-6.27,9.32-3.06,3.14-6.07,5.57-7.5,7.78,0,0,8.24,16.26,14.57,19.02,11.14-6.84,20.76-48.56,20.76-48.56,2.04,4.48,1.24,17.97,3.27,22.46.24.54.5,1.09.94,1.48.56.49,1.33.64,2.06.76,9.03,1.44,18.47.25,26.86-3.4,0,0-9.21-82.98-29.83-98.27v-.03ZM230.7,68.34c-.91,4.63-2.28,7.51-4.07,10.08-.85,1.23-2.71,1.13-3.39-.2-2.16-4.19-4.36-6.65-6.22-11.56-.52-1.36.53-2.8,1.98-2.71,3.69.23,6.23.51,10.46,2.13.9.35,1.42,1.31,1.24,2.25h0Z"/>
      <path d="M279.98,118.71l30.45-6.76c-1.36,6.36-.06,13.32-3.07,19.09-6.87,5.74-19.13,15.37-28.76,22.81-3.61.68-14.05-9.33-14.05-9.33l-8.27-29.89-6.57-35.35-12.1-56.26,1.52-10.5c.09-.65.22-1.36.71-1.81.57-.51,1.42-.5,2.18-.45,9.75.66,19.45,2.11,28.97,4.34.86.2,1.75.43,2.41,1,1.42,1.22,1.29,3.41,1.06,5.27-1.72,14.12-1.84,28.43-.34,42.57,7.25-9.73,16.71-17.79,27.46-23.42,3.44,8.81,6.88,17.63,10.33,26.44.3.76.6,1.56.51,2.37-.13,1.23-1.1,2.17-2.02,3-9.44,8.5-19.63,16.36-27.36,26.44-1.21,1.57-2.37,3.25-2.83,5.17l-.24,15.25v.02Z"/>
      <path d="M392.47,105.12c-13.41.17-56.29.38-56.29.38-1.67,0-3.06-1.28-3.16-2.95-1.17-18.29-2.83-44.75-3.98-62.76-.36-5.71,1.12-13.84-1.06-19.23-3.2-7.96-33.72-5.19-43.83-5.13-1.77.01-3.16,1.49-3.11,3.26.26,8.24.24,24.48-.05,32.71l19.93-13.52c1.75.5,2.53,2.96,2.53,2.96,2.66,6.56,6.32,12.13,8.99,18.69,1.67,4.11,3.33,7.8,1.46,11.82l-13.84,12.8-.45,28.75,12.83-3.71s-.73,16.74-3,21.67c-1.39,3.02-9.7,9.1-9.7,9.1l10.37.19c28.28,2.7,56.74,3.48,85.13,2.32,1.75-.07,5.12-1.57,5.02-3.33-.56-10.32.45-20.42-2.25-30.92-.4-1.54-3.95-3.12-5.54-3.1Z"/>
      <path d="M355.76,103.73l34.27-.04c-1.44-9-2.89-19-4.33-27.99-.1-1.49-1.12-3.93-2.51-3.89-4.58-.06-9.17.74-13.75.81s-4.46.96-6.18,4.84c-1.06,2.39-6.08,26.27-7.5,26.27Z"/>
      <path d="M392.32,101.31c.82.66,5.86,1.05,6.58,1.83.95,1.04,1.13,2.54,1.27,3.94,1.11,11.41,2.21,22.81,3.32,34.22,19.91-.49,36.81-.99,56.72-1.48,3.33-13.65,9.67-27.29,13-40.94-6.17.55-15.34,1.1-21.51,1.65.08,4.5-.19,9.02-.82,13.48,2.24,1.72,4.76,2.9,7.37,3.91-6.3,1.85-17.7,5.3-21.32-.08,4.3-15.53,8.24-25.65,12.55-39.81,1.11-3.48.97-5.47,3.92-12.29,2.63,2.77.1,21.11.15,28.67,8.6,1.55,12.19,1.04,19.83,1.64,3.04-12.45,6.08-30.9,9.12-43.34.83-2.61-1-4.23-3.11-5.83-16.53-13.73-33.07-27.46-49.6-41.19-.9-.75-1.88-1.53-3.04-1.66-.98-.11-1.94.26-2.85.63l-38.38,28.96s9.69-.85,17.24,6.81c2.27,3.6,1.26,10.86,1,14.46-.28,3.83-.88,11.81-3.47,15.16-1.45,1.87-7.83,2.56-13.26,2.57l5.29,28.7Z"/>
      <path d="M531.29,32.11c-2.46,24.41-16.38,63.17,2.62,79.85,5.34,4.69,14.49,3.15,14.45,4.69-.12,4.69,0,23.32,0,23.32l-56.59-1.41c-1.04-4.29,1.94-35.89,2.12-40.3-2.15,4.65-7.71,36.47-9.86,41.11-6.49.11-14.98.22-21.47.33,9.06-29.01,17.64-58.6,22.22-88.62-.3-1.25.66-2.18-.32-3.01-8.32-7.08-16.64-14.15-24.95-21.23-5.99-5.09-7.4-5.18-2.24-7.94,1.42-.76,40.8-11.38,40.72-11.51,1.6,16.01.05,43.77.04,64.21,2.87-6.65,7.02-29.9,10.69-36.15.41-.7.86-1.43,1.57-1.83,0,0,16.11-7.6,20.47-4.68.67.45.53,3.17.53,3.17Z"/>
      <path d="M538.97,113.34l11.73,2.03c.8,8.24-1.41,16.49-.61,24.73,8.26-1.69,19.71-2.4,28.13-2.11-3.02-27.74-7.85-55.29-14.43-82.41l26.27,1.78c1.28-8.76,4.01-17.31,8.06-25.19-28.31-16.95-58.07-25.42-90.85-32.01-3.91-.9-7.64,2.05-7.65,6.07-.03,5.75.77,14,1.01,19.77.26,5.85,1.27,6.71,7,5.73,5.12-.88,13.73-3.84,18.84-4.75,2.85-.51,6.59-.56,7.71,2.11l-.58,28.46h.02c1.48,14.72,2.97,29.44,4.45,44.17l.9,11.62Z"/>
      <g>
        <path d="M159.76,32.18l-2.12-2.98c-1.24-.32-.55-.14-1.82.06-12.69,1.91-33.29,4.42-45.74,7.54l-1.75,5.74,51.43-10.35h0Z"/>
        <g>
          <path d="M120.95,87.78l-1.59-41.72-13.16,3.49-11.38,37.28c5.9-.89,9.33-.92,16.42-.92,6.72,0,9.71,1.87,9.71,1.87Z"/>
          <path d="M162.64,40.04l-1.85-4.99-40.93,10.87,4.8,41.6c5.76-.8,11.52-1.6,17.28-2.4-.59-6.67,3.32-17.26,7.32-25.16,2.08-4.1,5.11-8.22,5.58-9.13l7.81-10.8h0Z"/>
        </g>
      </g>
      <path d="M399.27,41.54c3.46,4.08,2.26,23.65-1.58,27.38-11.87-.91-34.69,1.49-43.63.13s1.61-26.82,6.94-33c9.71-2.27,28.04-3.14,38.27,5.49Z"/>
    </g>
  </g>
</svg>