<?xml version="1.0" encoding="UTF-8"?>
<svg xmlns="http://www.w3.org/2000/svg" version="1.1" xmlns:xlink="http://www.w3.org/1999/xlink" viewBox="0 0 631 226.6">
  <defs>
    <style>
      .cls-1 {
        fill: url(#linear-gradient-2);
      }

      .cls-2 {
        fill: url(#linear-gradient-10);
      }

      .cls-3 {
        fill: #ff1d94;
      }

      .cls-4 {
        fill: url(#linear-gradient-4);
      }

      .cls-5 {
        stroke: #020202;
        stroke-miterlimit: 10;
        stroke-width: .2px;
      }

      .cls-6 {
        fill: url(#linear-gradient-3);
      }

      .cls-7 {
        fill: url(#linear-gradient-5);
      }

      .cls-8 {
        fill: url(#linear-gradient-8);
      }

      .cls-9 {
        fill: none;
        stroke: #00d5df;
        stroke-width: 8px;
      }

      .cls-10 {
        fill: url(#linear-gradient-7);
      }

      .cls-11 {
        fill: url(#linear-gradient-9);
      }

      .cls-12 {
        fill: url(#linear-gradient-11);
      }

      .cls-13 {
        fill: url(#linear-gradient-6);
      }

      .cls-14 {
        fill: url(#linear-gradient);
      }
    </style>
    <linearGradient id="linear-gradient" x1="155.6" y1="57.4" x2="155.6" y2="153.8" gradientTransform="translate(0 228) scale(1 -1)" gradientUnits="userSpaceOnUse">
      <stop offset="0" stop-color="#fc0"/>
      <stop offset="1" stop-color="#f7931e"/>
    </linearGradient>
    <linearGradient id="linear-gradient-2" x1="356.6" y1="45.7" x2="356.6" y2="173.8" gradientTransform="translate(0 228) scale(1 -1)" gradientUnits="userSpaceOnUse">
      <stop offset="0" stop-color="#fc0"/>
      <stop offset="1" stop-color="#f7931e"/>
    </linearGradient>
    <linearGradient id="linear-gradient-3" x1="395.3" y1="59.6" x2="395.3" y2="169.5" gradientTransform="translate(0 228) scale(1 -1)" gradientUnits="userSpaceOnUse">
      <stop offset="0" stop-color="#fc0"/>
      <stop offset="1" stop-color="#f7931e"/>
    </linearGradient>
    <linearGradient id="linear-gradient-4" x1="389.9" y1="83.2" x2="389.9" y2="165.3" gradientTransform="translate(0 228) scale(1 -1)" gradientUnits="userSpaceOnUse">
      <stop offset="0" stop-color="#fc0"/>
      <stop offset="1" stop-color="#f7931e"/>
    </linearGradient>
    <linearGradient id="linear-gradient-5" x1="451.7" y1="47.4" x2="451.7" y2="184.7" gradientTransform="translate(0 228) scale(1 -1)" gradientUnits="userSpaceOnUse">
      <stop offset="0" stop-color="#fc0"/>
      <stop offset="1" stop-color="#f7931e"/>
    </linearGradient>
    <linearGradient id="linear-gradient-6" x1="519.4" y1="48.8" x2="519.4" y2="181.3" gradientTransform="translate(0 228) scale(1 -1)" gradientUnits="userSpaceOnUse">
      <stop offset="0" stop-color="#fc0"/>
      <stop offset="1" stop-color="#f7931e"/>
    </linearGradient>
    <linearGradient id="linear-gradient-7" x1="567.9" y1="48.6" x2="567.9" y2="188.7" gradientTransform="translate(0 228) scale(1 -1)" gradientUnits="userSpaceOnUse">
      <stop offset="0" stop-color="#fc0"/>
      <stop offset="1" stop-color="#f7931e"/>
    </linearGradient>
    <linearGradient id="linear-gradient-8" x1="149.1" y1="57" x2="149.1" y2="152.6" gradientTransform="translate(0 228) scale(1 -1)" gradientUnits="userSpaceOnUse">
      <stop offset="0" stop-color="#fc0"/>
      <stop offset="1" stop-color="#f7931e"/>
    </linearGradient>
    <linearGradient id="linear-gradient-9" x1="122.1" y1="45.1" x2="122.1" y2="149.4" gradientTransform="translate(0 228) scale(1 -1)" gradientUnits="userSpaceOnUse">
      <stop offset="0" stop-color="#fc0"/>
      <stop offset="1" stop-color="#f7931e"/>
    </linearGradient>
    <linearGradient id="linear-gradient-10" x1="156.3" y1="101.2" x2="156.3" y2="153.7" gradientTransform="translate(0 228) scale(1 -1)" gradientUnits="userSpaceOnUse">
      <stop offset="0" stop-color="#fc0"/>
      <stop offset="1" stop-color="#f7931e"/>
    </linearGradient>
    <linearGradient id="linear-gradient-11" x1="258.3" y1="-49.2" x2="258.3" y2="-49.2" gradientTransform="matrix(1,0,0,1,0,0)" xlink:href="#linear-gradient-2"/>
  </defs>
  <!-- Generator: Adobe Illustrator 28.7.7, SVG Export Plug-In . SVG Version: 1.2.0 Build 194)  -->
  <g>
    <g id="Layer_2">
      <g id="Layer_1-2">
        <g>
          <path class="cls-9" d="M591.5,192.2c6.9,1.3,14.6-3.3,13.7-11-2.6-23.5-6.4-47.2-11.6-70.4,7.9.4,15.2.5,23.4-7.7s15.4-27.6,3.3-35.2c-21.7-12.8-101.8-47.7-111.5-25.4-17.8,4.8-37.4,9.8-39.5,13.1-6.8-4.3-16.6-17.3-25.8-17.3-8.2-1-39.3,26.6-46,30.6-7.2-.9-20.9.7-22.3,2.5-2.2,1.2-3.9,3.2-4.7,5.6-6.9,22.6-10.2,31.6.3,41.3-1.2,3.3-4.2,16.2-5.8,21.4h-5.5c-.9-19.3-3.5-42.7-3.5-61.5s-2.5-20.6-9.3-25c-12.8-8.2-36-4.7-51.5-2.1-11.9-4.9-22.2-6.4-34.8-7.6-11,0-14.5,11.1-15.2,18.4-3.1-2.9-22.2-1.1-26.2-1.6-18.3-.4-25.8,1-31,20.1-1.2-.5-2.4-1-3.6-1.4,1.5-7.2-5.1-15.7-12.6-15.6-12.5,1.8-25.7,3.5-38.6,5.8,12-42.1-82.1-19.8-101.6-13.5-27.4,8.2-7.2,79.2-8.5,100.4-7.6,2.1-19.3,4.6-18.2,15,2.3,12-1.5,31.4,17.7,31.4s85.8-8.2,82.6-25.6c.3-5.9-1.8-12.1,4.2-14.9,4.5,12.5,11.9,12.1,23.4,11.1-3.2,24.6,27.1,13.5,40.6,10,0,0,19.8,0,19.8,0,13,25.4,29.8,34.7,43.6-2.7,10.5,3.7,21.4,2.2,31.8-.8,0,0,3.3,11.8,3.3,11.8.5,1.7,1.4,3.3,2.7,4.5,12.6,12.1,18.3,12.1,20.5,12.1,9-1.1,11.7-7.2,22-14.2,33.3,1.6,67.9,6.5,100.9,1.4l173.4-3.1ZM125.7,96.5,593.6,110.7c7.9.4,14,3.1,22.4-4.7s16.4-30.6,4.3-38.2"/>
          <path d="M591.5,192.2c6.9,1.3,14.6-3.3,13.7-11-2.6-23.5-6.4-47.2-11.6-70.4,7.9.4,15.2.5,23.4-7.7s15.4-27.6,3.3-35.2c-21.7-12.8-101.8-47.7-111.5-25.4-17.8,4.8-37.4,9.8-39.5,13.1-6.8-4.3-16.6-17.3-25.8-17.3-8.2-1-39.3,26.6-46,30.6-7.2-.9-20.9.7-22.3,2.5-2.2,1.2-3.9,3.2-4.7,5.6-6.9,22.6-10.2,31.6.3,41.3-1.2,3.3-4.2,16.2-5.8,21.4h-5.5c-.9-19.3-3.5-42.7-3.5-61.5s-2.5-20.6-9.3-25c-12.8-8.2-36-4.7-51.5-2.1-11.9-4.9-22.2-6.4-34.8-7.6-11,0-14.5,11.1-15.2,18.4-3.1-2.9-22.2-1.1-26.2-1.6-18.3-.4-25.8,1-31,20.1-1.2-.5-2.4-1-3.6-1.4,1.5-7.2-5.1-15.7-12.6-15.6-12.5,1.8-25.7,3.5-38.6,5.8,12-42.1-82.1-19.8-101.6-13.5-27.4,8.2-7.2,79.2-8.5,100.4-7.6,2.1-19.3,4.6-18.2,15,2.3,12-1.5,31.4,17.7,31.4s85.8-8.2,82.6-25.6c.3-5.9-1.8-12.1,4.2-14.9,4.5,12.5,11.9,12.1,23.4,11.1-3.2,24.6,27.1,13.5,40.6,10,0,0,19.8,0,19.8,0,13,25.4,29.8,34.7,43.6-2.7,10.5,3.7,21.4,2.2,31.8-.8,0,0,3.3,11.8,3.3,11.8.5,1.7,1.4,3.3,2.7,4.5,12.6,12.1,18.3,12.1,20.5,12.1,9-1.1,11.7-7.2,22-14.2,33.3,1.6,67.9,6.5,100.9,1.4l173.4-3.1ZM125.7,96.5,593.6,110.7c7.9.4,14,3.1,22.4-4.7s16.4-30.6,4.3-38.2"/>
        </g>
        <path class="cls-5" d="M184.5,78.9c.2-.8.3-1.6.3-2.5s0-1.3-.2-1.9c.2.4.4.9.6,1.3l1.5,3.9c-.7-.3-1.4-.6-2.2-.8Z"/>
      </g>
      <g id="Layer_1-2-2" data-name="Layer_1-2">
        <path class="cls-3" d="M27.4,84.8c-.5-8.4-3.2-22,4.7-24.8,17.7-6.3,44.1-8.6,62.7-10.9,6.8-.8,29.3.8,30.1,7.6l-10.8,39-29.1,2.8c-4.9-15.1-12.4-5.2-22.3-.3-2.2.5.5,9.7.3,11l34.2-7.5c6.2,38.5-3,21.4-30.9,34.8l4.6,45.5c0,.2-.4,0-.2,0-16.1,2-34.3,5.1-50.1,8.8-.7.2-1.6.3-2-.4-.1-.2-.2-.4-.2-.7-1.5-8.1-2.6-16.2-3.2-24.4,0-.8.5-1.6,1.3-1.7l17.6-5.3-6.5-73.4h0Z"/>
        <path class="cls-3" d="M121.2,158.1c8.2,1,13-.8,18.6-.3-.8-10.5-2.2-22.6-8.7-28-5-4.2-11.4-2.9-17.2-1.2-7.9,2.3-16.2,5.4-21.5,13.8-1-3,1-7.6-1.1-9.2-.8-1.7-17.7,6.3-18.9,6.4,1.8,13.7,3.5,27.4,5.3,41.1,5.7-2.7,11.6-4.5,17.6-5.5-.3-7.3-.4-15.2,2.7-21.1,2.9-5.6,14.1-10.5,18.1-6.3l5.2,10.3h0Z"/>
        <path class="cls-14" d="M142.8,173.5c1.4,1,6.8-.5,8.3-.7,5.8-.8,11.6-1.9,17.3-3.2-3.3-13.8-7.2-27.4-11.6-40.9-4.5.5-9,1-13.5,1.5l-.5,43.3Z"/>
        <path class="cls-3" d="M208.7,101.2c-9-9.4-17.7-14.9-29.7-19-6.7,9.6-18.3,24.3-18.3,37,1.7,13.8,11.4,48.9,11.4,48.9h29c7.3-4.3,14.3-16.9,15.8-27.9-.2-7.9-5.9-32.9-8.2-39h0ZM190.9,142.3c-1.2-7.6-2.3-20.8-1.6-30.4,5.2,4.8,9.6,6.8,13.1,17.9-4.5,7-7.1,12.3-11.4,12.6h0Z"/>
        <path class="cls-3" d="M219.1,65.3c-4.1,0-8.3,0-12.4.5-1,.1-2.1.3-3,.8-1.1.6-1.9,1.5-2.6,2.5l-6.3,17.2c6.2,3.1,12.9,7.3,16.5,13.3,4.5,9.4,5.3,20.2,7.7,30.2.8,4.4,1.6,8.9,1.1,13.3-.5,4.1-2.1,8-3.9,11.7-1.1,2.4-3.2,7.2-6.3,10.3-3.1,3.1-6.1,5.6-7.5,7.8,0,0,7.2,15.3,13.6,18,11.1-6.8,20.8-48.6,20.8-48.6,2,4.5,1.2,18,3.3,22.5.2.5.5,1.1.9,1.5.6.5,1.3.6,2.1.8,9,1.4,18.5.2,26.9-3.4,0,0-9.2-83-29.8-98.3h-20.8ZM245.7,107.6c-4.5,18.5-8.3,9.9-13.7-1.7-2.4-5.1,14.9-1.9,13.7,1.7Z"/>
        <path class="cls-3" d="M297,158l30.5-6.8c-1.4,6.4,0,13.3-3.1,19.1-6.9,5.7-19.1,15.4-28.8,22.8-3.6.7-14-9.3-14-9.3l-8.3-29.9-6.6-35.4-12.1-56.3,1.5-10.5c0-.7.2-1.4.7-1.8.6-.5,1.4-.5,2.2-.5,9.8.7,19.5,2.1,29,4.3.9.2,1.8.4,2.4,1,1.4,1.2,1.3,3.4,1.1,5.3-1.7,14.1-1.8,28.4-.3,42.6,7.2-9.7,16.7-17.8,27.5-23.4,3.4,8.8,6.9,17.6,10.3,26.4,1.1,2,.3,4-1.5,5.4-9.4,8.5-19.6,16.4-27.4,26.4-1.2,1.6-2.4,3.2-2.8,5.2l-.2,15.2h0Z"/>
        <path class="cls-1" d="M330.5,97.8c1.7,4.1,3.3,8.8,1.5,12.8l-14.8,16.8-.4,17.7h0c-.3,2.2,1.8,4.1,3.9,3.5l9.9-.2s-.7,16.7-3,21.7c-1.4,3-7.7,9.1-7.7,9.1l7.4.2c28.3,2.7,56.7,3.5,85.1,2.3,1.8,0,3.1-1.6,3-3.3-.6-10.3-1.3-20.6-2.2-30.9,0-.9-.2-1.8-.8-2.4-.7-.7-1.8-.7-2.8-.7l-56.3.4c-1.7,0-3.1-1.3-3.2-2.9-1.2-18.3-.8-44.8-2-62.8-.4-5.7-.9-13.8-3.1-19.2-3.2-8-33.7-5.2-43.8-5.1-1.8,0-3.2,1.5-3.1,3.3.3,8.2.2,16.5,0,24.7,0,2.5,2.6,4.1,4.8,2.8l13.2-10,4.6-2.8,9.9,25.2Z"/>
        <path class="cls-6" d="M410.3,109.8c8.8.2,9.5-24.5,9.5-28.7-7.1-7.1-36.8-9.3-42.8-6-13.5,40.9-5.1,30.2,28.2,35.7l5-1Z"/>
        <path class="cls-4" d="M372.8,142h34.3c-1.4-9-2.9-18-4.3-27-.6-3.8-12.8-1.4-16.3-2.1-4.6,0-4.5,0-6.2,3.8-1.1,2.4-6.1,25.3-7.5,25.3Z"/>
        <path class="cls-7" d="M416.5,110.7c-3.2,2.8-3.9,4.2-8.2,4.3.8,6.3,1.6,12.7,2.5,19,.3,2.4.8,5,2.6,6.5.8.7,1.9,1.1,2.6,1.8,1,1,1.1,2.5,1.3,3.9,1.1,11.4,2.2,22.8,3.3,34.2,19.9-.5,36.8-1,56.7-1.5,3.3-13.6,6.7-27.3,10-40.9-6.2.6-12.3,1.1-18.5,1.6,0,4.5-.2,9-.8,13.5,2.2,1.7,4.8,2.9,7.4,3.9-6.3,1.9-17.7,5.3-21.3,0,4.3-15.5,8.2-25.6,12.5-39.8,1.1-3.5,1-5.5,3.9-12.3,2.6,2.8.1,21.1.1,28.7,8.6,1.6,11.2,1,18.8,1.6,3-12.4,6.1-30.9,9.1-43.3.8-2.6,0-4.2-2.1-5.8-16.5-13.7-33.1-27.5-49.6-41.2-.9-.8-1.9-1.5-3-1.7-1-.1-1.9.3-2.9.6l-36.4,27,17.2,5.6,1.7,2.4c-.8,6.7-.8,15.3-2.1,21.8l-4.9,10h0Z"/>
        <path class="cls-13" d="M546.8,69.2c1.4.2,1.8.8,1.5,2.2-2.5,24.4-16.4,63.2,2.6,79.9,5.3,4.7,14.5,3.1,14.5,4.7-.1,4.7,0,23.3,0,23.3l-56.6-1.4c-1-4.3,1.9-35.9,2.1-40.3-2.1,4.6-7.7,36.5-9.9,41.1-6.5.1-15,.2-21.5.3,9.1-29,17.6-58.6,22.2-88.6-.3-1.2.7-2.2-.3-3-8.3-7.1-16.6-14.2-25-21.2-6-5.1-2.4-7.2,2.8-9.9,1.4-.8,33.8-9.4,33.7-9.5,1.6,16,2,43.8,2,64.2,2.9-6.7,7-29.9,10.7-36.2.4-.7.9-1.4,1.6-1.8l19.5-3.7h0Z"/>
        <path class="cls-10" d="M554.8,150c.7.6,13.8,3.7,13.9,4.6.8,8.2-.4,16.5.4,24.7,8.3-1.7,17.7-2.4,26.1-2.1-3-27.7-7.8-55.3-14.4-82.4l28.3,6.8c6.2-9.4,10.1-19.8,10.1-29.2-28.3-16.9-62.1-26.4-94.8-33-3.9-.9-7.6,2-7.7,6.1,0,5.8.8,14,1,19.8.3,5.8,1.3,6.7,7,5.7,5.1-.9,13.7-3.8,18.8-4.8,2.8-.5,6.6-.6,7.7,2.1l-3.6,28.5v8c1.5,14.7,3,21.4,4.5,36.2l2.7,9Z"/>
        <g>
          <path class="cls-8" d="M174.8,71.4l-2.1-3c-1.2-.3-.6-.1-1.8,0-12.7,1.9-33.3,4.4-45.7,7.5l-1.8,5.7,51.4-10.3h0Z"/>
          <g>
            <path class="cls-11" d="M132.1,126.5l2.2-41.2-13.2,3.5-11.4,37.3c7.7-1.7,15-2.5,22.3.4h0Z"/>
            <path class="cls-2" d="M175.8,74.3l-40.9,10.9,4.8,41.6c5.8-.8,11.5-1.6,17.3-2.4-1.2-13.2,4.9-24.3,10.8-35.7l9.9-9.4-1.9-5Z"/>
          </g>
        </g>
      </g>
      <path class="cls-12" d="M258.3-49.2"/>
    </g>
  </g>
</svg>